<?xml version="1.0" standalone="no"?>
<!DOCTYPE svg PUBLIC "-//W3C//DTD SVG 20010904//EN"
 "http://www.w3.org/TR/2001/REC-SVG-20010904/DTD/svg10.dtd">
<svg version="1.0" xmlns="http://www.w3.org/2000/svg"
 width="345.000000pt" height="345.000000pt" viewBox="0 0 345.000000 345.000000"
 preserveAspectRatio="xMidYMid meet">
<metadata>
Created by potrace 1.11, written by Peter Selinger 2001-2013
</metadata>
<g transform="translate(0.000000,345.000000) scale(0.100000,-0.100000)"
fill="#000000" stroke="none">
<path d="M1652 3440 c-29 -7 -130 -56 -222 -107 -19 -11 -89 -48 -155 -83 -66
-35 -124 -66 -130 -70 -5 -4 -68 -38 -140 -75 -71 -37 -134 -71 -140 -75 -5
-4 -59 -34 -120 -66 -60 -32 -144 -76 -185 -99 -42 -22 -118 -62 -169 -90 -52
-27 -113 -67 -137 -88 -42 -37 -98 -134 -109 -187 -7 -31 -19 -698 -25 -1355
-2 -180 23 -258 108 -341 31 -30 192 -134 207 -134 3 0 34 -18 70 -40 36 -22
68 -40 71 -40 3 0 18 -8 32 -19 15 -10 52 -32 82 -48 30 -16 235 -133 455
-259 220 -125 423 -236 450 -245 96 -31 212 -18 310 36 33 18 218 117 410 220
193 103 375 201 405 217 30 16 93 50 140 75 47 25 112 60 145 78 33 18 83 45
112 59 72 37 144 119 173 196 27 72 26 48 36 750 10 780 10 808 -12 862 -25
62 -74 129 -115 161 -27 20 -480 283 -699 405 -25 14 -151 86 -280 160 -326
187 -329 188 -388 201 -59 12 -131 13 -180 1z"/>
</g>
</svg>
